<svg width="400" height="371" viewBox="0 0 400 371" fill="none" xmlns="http://www.w3.org/2000/svg">
<path d="M235.1 234.4L221.5 249C250.1 275.6 267.2 311.6 269.7 350.3H227.8C227.4 345.7 226.7 341 225.7 336.5C221.6 317.9 212.7 300.6 199.8 286.4L185 299.9C195.5 311.5 202.8 325.7 206.2 340.9C207.6 347.3 208.3 353.9 208.3 360.4V370.4H290V360.4C290 356.9 289.9 353.3 289.6 349.5C286.9 305.4 267.6 264.6 235.1 234.4Z" fill="#00FF66"/>
<path d="M65 223.5C68.3 219.9 72 216.5 75.8 213.5C89 203.2 104.7 196.8 121.3 194.9C127 194.3 132.7 194.2 138.3 194.6C149 195.4 159.4 198.1 169.1 202.6C171.5 203.7 173.8 204.9 176.1 206.2L186 188.8C183.2 187.2 180.4 185.7 177.5 184.4C165.6 178.9 152.9 175.6 139.8 174.6C133 174.1 126 174.2 119.1 175C98.8 177.3 79.6 185.1 63.5 197.7C61.5 199.2 59.6 200.9 57.7 202.6L28.1 173C44.3 158 63.8 146.6 84.7 139.9C91.7 137.7 98.9 135.9 106.1 134.7C123.5 131.8 141.5 131.9 158.7 135L162.3 115.3C142.8 111.8 122.5 111.6 102.9 114.9C94.7 116.3 86.6 118.3 78.7 120.8C54.5 128.6 31.9 142 13.3 159.5C11 161.6 8.9 163.8 6.8 166L0 173.2L57.9 231.1L65 223.5Z" fill="#00FF66"/>
<path d="M341.9 114.9L334.8 122.6C331.5 126.2 327.8 129.6 324 132.6C310.8 142.9 295.1 149.3 278.5 151.2C272.8 151.8 267.1 151.9 261.5 151.5C248.1 150.5 235.4 146.6 223.7 139.9C221.2 138.5 218.7 136.9 216.4 135.2L204.9 151.5C207.8 153.5 210.8 155.5 213.8 157.2C228.1 165.4 243.6 170.1 260 171.4C266.8 171.9 273.8 171.8 280.7 171C301 168.7 320.2 160.9 336.3 148.3C338.3 146.8 340.2 145.1 342.1 143.4L371.7 173C355.5 188 336 199.4 315.1 206.1C308.1 208.3 300.9 210.1 293.7 211.3C276.3 214.2 258.3 214.1 241.1 211C236.9 210.2 232.6 209.3 228.4 208.1L223.2 227.4C228 228.7 232.8 229.8 237.6 230.7C247.7 232.5 258.1 233.5 268.4 233.5C277.9 233.5 287.6 232.7 297 231.1C305.2 229.7 313.3 227.7 321.2 225.2C345.4 217.4 368 204 386.6 186.5C388.9 184.4 391 182.2 393.1 180L399.8 172.9L341.9 114.9Z" fill="#00FF66"/>
<path d="M165.8 222.7C161.7 236.6 155.5 249.8 147.6 262C141.8 270.9 135.1 279.2 127.6 286.6C105.1 309.1 76.6 323.8 45.4 329C40.3 329.8 35.2 330.4 30.1 330.8V289C30.9 288.9 31.6 288.9 32.4 288.8C57.1 286.1 80.5 274.8 98.1 257.2C107.7 247.6 115.4 236.4 120.9 223.9L102.6 215.8C98.1 226 91.8 235.1 83.9 243C69.5 257.4 50.4 266.6 30.1 268.9C26.7 269.3 23.3 269.5 20 269.5H10V315.6V337.4V351.2L19.4 351.3H20C29.5 351.3 39.2 350.5 48.6 348.9C84 343 116.2 326.4 141.7 300.9C150.1 292.5 157.7 283.1 164.3 273.1C173.3 259.3 180.2 244.3 184.9 228.6L165.8 222.7Z" fill="#00FF66"/>
<path d="M240.5 121C273.9 121 301 93.9 301 60.5C301 27.1 273.9 0 240.5 0C207.1 0 180 27.1 180 60.5C180 93.9 207.1 121 240.5 121ZM240.5 20C262.8 20 281 38.2 281 60.5C281 82.8 262.8 101 240.5 101C218.2 101 200 82.9 200 60.5C200 38.1 218.2 20 240.5 20Z" fill="#00FF66"/>
</svg>
